<?xml version="1.0" encoding="UTF-8" standalone="no"?>
<svg
   xmlns:dc="http://purl.org/dc/elements/1.1/"
   xmlns:cc="http://creativecommons.org/ns#"
   xmlns:rdf="http://www.w3.org/1999/02/22-rdf-syntax-ns#"
   xmlns:svg="http://www.w3.org/2000/svg"
   xmlns="http://www.w3.org/2000/svg"
   version="1.1"
   id="svg4511"
   viewBox="0 0 256 256"
   height="256"
   width="256">
  <defs
     id="defs4513" />
  <metadata
     id="metadata4516">
    <rdf:RDF>
      <cc:Work
         rdf:about="">
        <dc:format>image/svg+xml</dc:format>
        <dc:type
           rdf:resource="http://purl.org/dc/dcmitype/StillImage" />
        <dc:title></dc:title>
      </cc:Work>
    </rdf:RDF>
  </metadata>
  <g
     transform="translate(0,-796.36216)"
     id="layer1">
    <g
       transform="translate(-3513.5999,2148.6245)"
       id="g5855">
      <rect
         y="1096.2623"
         x="3513.5999"
         height="256"
         width="256"
         id="rect4966-6-0"
         style="color:#000000;clip-rule:nonzero;display:inline;overflow:visible;visibility:visible;opacity:1;isolation:auto;mix-blend-mode:normal;color-interpolation:sRGB;color-interpolation-filters:linearRGB;solid-color:#000000;solid-opacity:1;fill:#000000;fill-opacity:1;fill-rule:nonzero;stroke:none;stroke-width:2;stroke-linecap:round;stroke-linejoin:round;stroke-miterlimit:4;stroke-dasharray:none;stroke-dashoffset:0;stroke-opacity:1;color-rendering:auto;image-rendering:auto;shape-rendering:auto;text-rendering:auto;enable-background:accumulate"
         transform="scale(1,-1)" />
      <g
         id="g4198"
         transform="matrix(8.7773549,0,0,8.7773549,3560.6211,-1407.183)"
         style="fill:#ffffff;fill-opacity:1">
        <g
           id="FPO"
           style="fill:#ffffff;fill-opacity:1" />
        <g
           id="Global_Nav_Small_Icons"
           style="fill:#ffffff;fill-opacity:1" />
        <g
           id="Global_Nav_Small_1_"
           style="fill:#ffffff;fill-opacity:1" />
        <g
           id="Bag"
           style="fill:#ffffff;fill-opacity:1" />
        <g
           id="Global_Nav_Large_Icons"
           style="fill:#ffffff;fill-opacity:1">
          <path
             d="m 16.831876,24.226594 c -0.106,0.307 -0.217,0.6 -0.335,0.881 -0.288,0.664 -0.628,1.275 -1.022,1.836 -0.536,0.766 -0.976,1.296 -1.315,1.59 -0.525,0.483 -1.088,0.731 -1.691,0.744 -0.433,0 -0.954,-0.123 -1.562,-0.372 -0.609,-0.249 -1.1690001,-0.372 -1.6810001,-0.372 -0.537,0 -1.113,0.123 -1.729,0.372 -0.617,0.249 -1.114,0.38 -1.494,0.392 -0.578,0.025 -1.154,-0.229 -1.729,-0.764 -0.367,-0.32 -0.826,-0.869 -1.376,-1.646 -0.59,-0.83 -1.075,-1.793 -1.455,-2.891 -0.407,-1.185 -0.61099995,-2.333 -0.61099995,-3.444 0,-1.273 0.27499995,-2.371 0.82599995,-3.291 0.433,-0.739 1.009,-1.322 1.73,-1.75 0.721,-0.428 1.5,-0.646 2.339,-0.66 0.459,0 1.061,0.142 1.809,0.421 0.746,0.28 1.225,0.422 1.435,0.422 0.157,0 0.689,-0.166 1.5910001,-0.497 0.853,-0.307 1.573,-0.434 2.163,-0.384 1.598,0.129 2.798,0.759 3.597,1.894 -1.429,0.866 -2.136,2.079 -2.122,3.635 0.013,1.212 0.452,2.221 1.316,3.022 0.392,0.371 0.83,0.658 1.316,0.862 z m -4.02,-13.922 c 0.013,0.127 0.019,0.254 0.019,0.38 0,0.95 -0.347,1.837 -1.038,2.658 -0.835,0.976 -1.8450001,1.54 -2.9400001,1.451 -0.014,-0.114 -0.022,-0.234 -0.022,-0.36 0,-0.912 0.397,-1.888 1.102,-2.686 0.3520001,-0.404 0.8000001,-0.74 1.3420001,-1.008 0.542,-0.264 1.055,-0.41 1.537,-0.435 z"
             id="Apple"
             style="fill:#ffffff;fill-opacity:1" />
        </g>
        <g
           id="Global_Nav_Large_1_"
           style="fill:#ffffff;fill-opacity:1" />
        <g
           id="Guides"
           style="fill:#ffffff;fill-opacity:1" />
        <g
           id="NOTES"
           style="fill:#ffffff;fill-opacity:1" />
      </g>
    </g>
  </g>
</svg>
