<?xml version="1.0" encoding="UTF-8" standalone="no"?>
<svg
   xmlns:dc="http://purl.org/dc/elements/1.1/"
   xmlns:cc="http://creativecommons.org/ns#"
   xmlns:rdf="http://www.w3.org/1999/02/22-rdf-syntax-ns#"
   xmlns:svg="http://www.w3.org/2000/svg"
   xmlns="http://www.w3.org/2000/svg"
   version="1.1"
   id="svg4847"
   viewBox="0 0 256 256"
   height="256"
   width="256">
  <defs
     id="defs4849" />
  <metadata
     id="metadata4852">
    <rdf:RDF>
      <cc:Work
         rdf:about="">
        <dc:format>image/svg+xml</dc:format>
        <dc:type
           rdf:resource="http://purl.org/dc/dcmitype/StillImage" />
        <dc:title></dc:title>
      </cc:Work>
    </rdf:RDF>
  </metadata>
  <g
     transform="translate(0,-796.36214)"
     id="layer1">
    <g
       transform="translate(-332,1309.1428)"
       id="g4774">
      <rect
         y="-512.78064"
         x="332"
         height="256"
         width="256"
         id="rect4692"
         style="color:#000000;clip-rule:nonzero;display:inline;overflow:visible;visibility:visible;opacity:1;isolation:auto;mix-blend-mode:normal;color-interpolation:sRGB;color-interpolation-filters:linearRGB;solid-color:#000000;solid-opacity:1;fill:#e1306c;fill-opacity:1;fill-rule:nonzero;stroke:none;stroke-width:2;stroke-linecap:round;stroke-linejoin:round;stroke-miterlimit:4;stroke-dasharray:none;stroke-dashoffset:0;stroke-opacity:1;color-rendering:auto;image-rendering:auto;shape-rendering:auto;text-rendering:auto;enable-background:accumulate" />
      <path
         id="path4700"
         d="m 459.98273,-479.31001 c -25.66607,0 -28.88713,0.11223 -38.96769,0.57097 -10.06088,0.46071 -16.92827,2.05352 -22.93723,4.39056 -6.21569,2.41382 -11.4883,5.64275 -16.74122,10.89764 -5.25686,5.25292 -8.48579,10.52553 -10.90749,16.73926 -2.34294,6.01093 -3.93772,12.88028 -4.39056,22.93722 -0.45087,10.08057 -0.569,13.30359 -0.569,38.96966 0,25.66607 0.11419,28.87728 0.57097,38.95784 0.46268,10.06088 2.05549,16.92827 4.39056,22.93723 2.41579,6.21569 5.64472,11.4883 10.89961,16.74122 5.25095,5.25686 10.52356,8.49367 16.73532,10.90749 6.0129,2.33704 12.88225,3.92985 22.94116,4.39056 10.08057,0.45874 13.29965,0.57097 38.96375,0.57097 25.66804,0 28.87925,-0.11223 38.95982,-0.57097 10.06087,-0.46071 16.93613,-2.05352 22.94903,-4.39056 6.21373,-2.41382 11.47846,-5.65063 16.72941,-10.90749 5.25686,-5.25292 8.48579,-10.52553 10.90749,-16.73925 2.32326,-6.01093 3.91803,-12.88029 4.39056,-22.93723 0.45284,-10.08056 0.57097,-13.29374 0.57097,-38.95981 0,-25.66607 -0.11813,-28.88712 -0.57097,-38.96769 -0.47253,-10.06088 -2.0673,-16.92826 -4.39056,-22.93723 -2.4217,-6.21569 -5.65063,-11.4883 -10.90749,-16.74122 -5.25685,-5.25685 -10.51371,-8.48579 -16.73531,-10.89764 -6.02472,-2.33704 -12.89604,-3.92985 -22.95692,-4.39056 -10.08056,-0.45874 -13.28981,-0.57097 -38.96375,-0.57097 z m -8.47792,17.03064 c 2.51621,-0.004 5.3238,0 8.47792,0 25.23291,0 28.22361,0.0906 38.18802,0.54341 9.21426,0.42134 14.21517,1.96099 17.54648,3.25453 4.41025,1.71291 7.55452,3.76052 10.86024,7.06821 3.30768,3.30768 5.3553,6.45786 7.07214,10.86811 1.29354,3.32737 2.83516,8.32828 3.25453,17.54255 0.45284,9.96243 0.55128,12.9551 0.55128,38.1762 0,25.22111 -0.0984,28.21377 -0.55128,38.17621 -0.42134,9.21427 -1.96099,14.21517 -3.25453,17.54255 -1.71291,4.41024 -3.76446,7.55058 -7.07214,10.85629 -3.30769,3.30769 -6.44802,5.35531 -10.86024,7.06821 -3.32737,1.29945 -8.33222,2.83516 -17.54648,3.2565 -9.96244,0.45284 -12.95511,0.55128 -38.18802,0.55128 -25.23489,0 -28.22559,-0.0984 -38.18803,-0.55128 -9.21426,-0.42527 -14.21517,-1.96492 -17.54845,-3.25846 -4.41025,-1.71291 -7.56042,-3.76053 -10.86811,-7.06821 -3.30769,-3.30769 -5.3553,-6.44999 -7.07215,-10.86221 -1.29354,-3.32737 -2.83516,-8.32828 -3.25452,-17.54255 -0.45284,-9.96243 -0.54341,-12.9551 -0.54341,-38.19195 0,-25.23686 0.0906,-28.21378 0.54341,-38.17621 0.42133,-9.21427 1.96098,-14.21517 3.25452,-17.54649 1.71291,-4.41024 3.76446,-7.56042 7.07215,-10.86811 3.30769,-3.30768 6.45786,-5.3553 10.86811,-7.07214 3.33131,-1.29945 8.33419,-2.83516 17.54845,-3.25847 8.71812,-0.39377 12.09668,-0.5119 29.71011,-0.53159 z m 58.92406,15.69182 c -6.26098,0 -11.34064,5.07376 -11.34064,11.3367 0,6.26098 5.07966,11.34064 11.34064,11.34064 6.26098,0 11.34064,-5.07966 11.34064,-11.34064 0,-6.26097 -5.07966,-11.34063 -11.34064,-11.34063 z m -50.44614,13.25044 c -26.8021,0 -48.53242,21.73031 -48.53242,48.53241 0,26.8021 21.73032,48.52257 48.53242,48.52257 26.80209,0 48.52453,-21.72047 48.52453,-48.52257 0,-26.8021 -21.7244,-48.53241 -48.5265,-48.53241 z m 0,17.03064 c 17.39685,0 31.50176,14.10295 31.50176,31.50177 0,17.39685 -14.10491,31.50177 -31.50176,31.50177 -17.39883,0 -31.50177,-14.10492 -31.50177,-31.50177 0,-17.39882 14.10294,-31.50177 31.50177,-31.50177 z"
         style="fill:#ffffff" />
    </g>
  </g>
</svg>
