<?xml version="1.0" encoding="UTF-8" standalone="no"?>
<svg
   xmlns:dc="http://purl.org/dc/elements/1.1/"
   xmlns:cc="http://creativecommons.org/ns#"
   xmlns:rdf="http://www.w3.org/1999/02/22-rdf-syntax-ns#"
   xmlns:svg="http://www.w3.org/2000/svg"
   xmlns="http://www.w3.org/2000/svg"
   version="1.1"
   id="svg4511"
   viewBox="0 0 256 256"
   height="256"
   width="256">
  <defs
     id="defs4513" />
  <metadata
     id="metadata4516">
    <rdf:RDF>
      <cc:Work
         rdf:about="">
        <dc:format>image/svg+xml</dc:format>
        <dc:type
           rdf:resource="http://purl.org/dc/dcmitype/StillImage" />
        <dc:title></dc:title>
      </cc:Work>
    </rdf:RDF>
  </metadata>
  <g
     transform="translate(0,-796.36216)"
     id="layer1">
    <g
       transform="translate(-2435.7673,2144.8432)"
       id="g5842">
      <rect
         transform="scale(1,-1)"
         style="color:#000000;clip-rule:nonzero;display:inline;overflow:visible;visibility:visible;opacity:1;isolation:auto;mix-blend-mode:normal;color-interpolation:sRGB;color-interpolation-filters:linearRGB;solid-color:#000000;solid-opacity:1;fill:#0071c5;fill-opacity:1;fill-rule:nonzero;stroke:none;stroke-width:2;stroke-linecap:round;stroke-linejoin:round;stroke-miterlimit:4;stroke-dasharray:none;stroke-dashoffset:0;stroke-opacity:1;color-rendering:auto;image-rendering:auto;shape-rendering:auto;text-rendering:auto;enable-background:accumulate"
         id="rect5290"
         width="256"
         height="256"
         x="2435.7673"
         y="1092.4811" />
      <g
         id="g5345"
         transform="matrix(1.4393159,0,0,1.4393159,2489.5179,-1295.551)"
         style="fill:#ffffff;fill-opacity:1">
        <path
           style="fill:#ffffff;fill-opacity:1"
           id="path3"
           d="m 64.566509,22.116383 0,20.404273 7.130526,4.489881 c 0.188058,0.05485 0.595516,0.05877 0.783574,0 L 103.16929,26.320259 c 0,-2.44867 -2.28412,-4.203876 -3.573094,-4.203876 l -35.029687,0 z" />
        <path
           style="fill:#ffffff;fill-opacity:1"
           id="path5"
           d="m 64.566509,50.13308 6.507584,4.470291 c 0.916782,0.673874 2.021622,0 2.021622,0 -1.100922,0.673874 30.077495,-20.035993 30.077495,-20.035993 l 0,37.501863 c 0,4.082422 -2.61322,5.794531 -5.551621,5.794531 l -33.058998,0 0,-27.730692 z" />
        <g
           transform="matrix(3.9178712,0,0,3.9178712,-13.481403,-41.384473)"
           id="g23"
           style="fill:#ffffff;fill-opacity:1">
          <path
             style="fill:#ffffff;fill-opacity:1"
             id="path25"
             d="m 11.321,20.958 c -0.566,0 -1.017,0.266 -1.35,0.797 -0.333,0.531 -0.5,1.234 -0.5,2.109 0,0.888 0.167,1.59 0.5,2.106 0.333,0.517 0.77,0.774 1.31,0.774 0.557,0 0.999,-0.251 1.325,-0.753 0.326,-0.502 0.49,-1.199 0.49,-2.09 0,-0.929 -0.158,-1.652 -0.475,-2.169 -0.317,-0.516 -0.75,-0.774 -1.3,-0.774 z" />
          <path
             style="fill:#ffffff;fill-opacity:1"
             id="path27"
             d="m 3.441,13.563 0,20.375 15.5,3.25 0,-26.625 -15.5,3 z m 10.372,13.632 c -0.655,0.862 -1.509,1.294 -2.563,1.294 -1.027,0 -1.863,-0.418 -2.51,-1.253 C 8.094,26.4 7.77,25.312 7.77,23.97 c 0,-1.417 0.328,-2.563 0.985,-3.438 0.657,-0.875 1.527,-1.313 2.61,-1.313 1.023,0 1.851,0.418 2.482,1.256 0.632,0.838 0.948,1.942 0.948,3.313 10e-4,1.409 -0.327,2.545 -0.982,3.407 z" />
        </g>
      </g>
    </g>
  </g>
</svg>
