<?xml version="1.0" encoding="UTF-8" standalone="no"?>
<svg
   xmlns:dc="http://purl.org/dc/elements/1.1/"
   xmlns:cc="http://creativecommons.org/ns#"
   xmlns:rdf="http://www.w3.org/1999/02/22-rdf-syntax-ns#"
   xmlns:svg="http://www.w3.org/2000/svg"
   xmlns="http://www.w3.org/2000/svg"
   version="1.1"
   id="svg4847"
   viewBox="0 0 256 256"
   height="256"
   width="256">
  <defs
     id="defs4849" />
  <metadata
     id="metadata4852">
    <rdf:RDF>
      <cc:Work
         rdf:about="">
        <dc:format>image/svg+xml</dc:format>
        <dc:type
           rdf:resource="http://purl.org/dc/dcmitype/StillImage" />
        <dc:title></dc:title>
      </cc:Work>
    </rdf:RDF>
  </metadata>
  <g
     transform="translate(0,-796.36214)"
     id="layer1">
    <g
       transform="translate(361.7063,1300.9031)"
       id="g4809">
      <rect
         y="-504.54095"
         x="-361.7063"
         height="256"
         width="256"
         id="rect4676"
         style="color:#000000;clip-rule:nonzero;display:inline;overflow:visible;visibility:visible;opacity:1;isolation:auto;mix-blend-mode:normal;color-interpolation:sRGB;color-interpolation-filters:linearRGB;solid-color:#000000;solid-opacity:1;fill:#0088cc;fill-opacity:1;fill-rule:nonzero;stroke:none;stroke-width:2;stroke-linecap:round;stroke-linejoin:round;stroke-miterlimit:4;stroke-dasharray:none;stroke-dashoffset:0;stroke-opacity:1;color-rendering:auto;image-rendering:auto;shape-rendering:auto;text-rendering:auto;enable-background:accumulate" />
      <g
         id="g4804">
        <path
           style="fill:#0088cc;fill-opacity:1;stroke:#ffffff;stroke-width:4.5;stroke-linecap:round;stroke-linejoin:round;stroke-miterlimit:4;stroke-dasharray:none;stroke-opacity:1"
           d="m -257.07305,-319.37095 c -4.14678,0 -3.44214,-1.56576 -4.87232,-5.51413 l -12.19435,-40.13291"
           id="path4706" />
        <path
           style="fill:#ffffff;fill-opacity:1"
           d="m -257.17295,-317.8743 c 3.2,0 4.61386,-1.46346 6.4,-3.2 l 17.06666,-16.5952 -21.28853,-12.83733 z"
           id="path4708" />
        <path
           style="fill:#ffffff;fill-opacity:1"
           d="m -254.99695,-350.50363 51.584,38.11093 c 5.8864,3.2479 10.13483,1.5663 11.60107,-5.46506 l 20.99733,-98.94721 c 2.14976,-8.61888 -3.28544,-12.528 -8.91669,-9.97141 l -123.29601,47.5424 c -8.41611,3.37568 -8.36704,8.07104 -1.53408,10.1632 l 31.64054,9.87552 73.2512,-46.21333 c 3.45803,-2.09696 6.63179,-0.96959 4.02688,1.34229"
           id="path4710" />
      </g>
    </g>
  </g>
</svg>
