<?xml version="1.0" encoding="UTF-8" standalone="no"?>
<svg
   xmlns:dc="http://purl.org/dc/elements/1.1/"
   xmlns:cc="http://creativecommons.org/ns#"
   xmlns:rdf="http://www.w3.org/1999/02/22-rdf-syntax-ns#"
   xmlns:svg="http://www.w3.org/2000/svg"
   xmlns="http://www.w3.org/2000/svg"
   version="1.1"
   id="svg4847"
   viewBox="0 0 256 256"
   height="256"
   width="256">
  <defs
     id="defs4849" />
  <metadata
     id="metadata4852">
    <rdf:RDF>
      <cc:Work
         rdf:about="">
        <dc:format>image/svg+xml</dc:format>
        <dc:type
           rdf:resource="http://purl.org/dc/dcmitype/StillImage" />
        <dc:title></dc:title>
      </cc:Work>
    </rdf:RDF>
  </metadata>
  <g
     transform="translate(0,-796.36214)"
     id="layer1">
    <g
       transform="translate(13.714286,1309.1428)"
       id="g4778">
      <rect
         y="-512.78064"
         x="-13.714286"
         height="256"
         width="256"
         id="rect4678"
         style="color:#000000;clip-rule:nonzero;display:inline;overflow:visible;visibility:visible;opacity:1;isolation:auto;mix-blend-mode:normal;color-interpolation:sRGB;color-interpolation-filters:linearRGB;solid-color:#000000;solid-opacity:1;fill:#00e676;fill-opacity:1;fill-rule:nonzero;stroke:none;stroke-width:2;stroke-linecap:round;stroke-linejoin:round;stroke-miterlimit:4;stroke-dasharray:none;stroke-dashoffset:0;stroke-opacity:1;color-rendering:auto;image-rendering:auto;shape-rendering:auto;text-rendering:auto;enable-background:accumulate" />
      <path
         style="fill:#ffffff"
         class="logo_white"
         d="m 180.99721,-451.49218 c -17.51499,-18.03013 -41.72689,-27.81792 -66.45393,-27.81792 -52.54497,0 -94.787005,42.75718 -94.271858,94.787 0,16.4847 4.636321,32.45425 12.363522,46.87836 l -13.393815,48.93894 49.969235,-12.87867 c 13.908963,7.7272 29.363366,11.33323 44.817766,11.33323 l 0,0 c 52.02983,0 94.27186,-42.75718 94.27186,-94.78701 0,-25.24219 -9.78779,-48.93894 -27.30278,-66.45393 z m -66.45393,145.27139 0,0 c -13.90896,0 -27.817926,-3.60603 -39.666301,-10.81808 l -3.090881,-1.54544 -29.878512,7.7272 7.727201,-29.36337 -2.060587,-3.09088 c -22.666457,-36.57542 -11.848375,-84.99921 25.242192,-107.66567 37.090568,-22.66646 84.999218,-11.84838 107.665668,25.24219 22.66646,37.09057 11.84838,84.99922 -25.24219,107.66567 -11.84837,7.7272 -26.27248,11.84838 -40.69659,11.84838 z m 45.33291,-57.18129 -5.66661,-2.57574 c 0,0 -8.24235,-3.60602 -13.39382,-6.18176 -0.51514,0 -1.03029,-0.51514 -1.54544,-0.51514 -1.54544,0 -2.57573,0.51514 -3.60602,1.03029 l 0,0 c 0,0 -0.51515,0.51515 -7.72721,8.7575 -0.51514,1.03029 -1.54544,1.54544 -2.57573,1.54544 l -0.51515,0 c -0.51514,0 -1.54544,-0.51515 -2.06058,-1.0303 l -2.57574,-1.03029 0,0 c -5.66661,-2.57574 -10.81808,-5.66662 -14.93925,-9.78779 -1.0303,-1.03029 -2.57574,-2.06059 -3.60603,-3.09088 -3.606027,-3.60603 -7.212054,-7.7272 -9.787788,-12.36352 l -0.515147,-1.0303 c -0.515147,-0.51514 -0.515147,-1.03029 -1.030294,-2.06058 0,-1.0303 0,-2.06059 0.515147,-2.57574 0,0 2.060587,-2.57573 3.606028,-4.12117 1.030293,-1.03029 1.54544,-2.57573 2.575733,-3.60603 1.030294,-1.54544 1.545441,-3.60603 1.030294,-5.15147 -0.515147,-2.57573 -6.696908,-16.48469 -8.242348,-19.57557 -1.030294,-1.54544 -2.060587,-2.06059 -3.606028,-2.57574 l -1.54544,0 c -1.030293,0 -2.575734,0 -4.121174,0 -1.030293,0 -2.060587,0.51515 -3.090881,0.51515 l -0.515146,0.51515 c -1.030294,0.51514 -2.060587,1.54544 -3.090881,2.06058 -1.030293,1.0303 -1.54544,2.06059 -2.575734,3.09088 -3.606027,4.63633 -5.666614,10.30294 -5.666614,15.96955 l 0,0 c 0,4.12118 1.030294,8.24235 2.575734,11.84838 l 0.515147,1.54544 c 4.63632,9.78779 10.818082,18.54528 19.06043,26.27248 l 2.060587,2.06059 c 1.54544,1.54544 3.09088,2.57574 4.121174,4.12118 10.818081,9.27264 23.181601,15.96955 37.090571,19.57557 1.54544,0.51515 3.60602,0.51515 5.15146,1.0303 l 0,0 c 1.54544,0 3.60603,0 5.15147,0 2.57573,0 5.66662,-1.0303 7.7272,-2.06059 1.54544,-1.03029 2.57574,-1.03029 3.60603,-2.06059 l 1.03029,-1.03029 c 1.0303,-1.0303 2.06059,-1.54544 3.09088,-2.57574 1.0303,-1.03029 2.06059,-2.06058 2.57574,-3.09088 1.03029,-2.06058 1.54544,-4.63632 2.06058,-7.21205 0,-1.03029 0,-2.57573 0,-3.60603 0,0 -0.51514,-0.51514 -1.54544,-1.03029 z"
         id="path4728" />
    </g>
  </g>
</svg>
