<?xml version="1.0" encoding="UTF-8" standalone="no"?>
<svg
   xmlns:dc="http://purl.org/dc/elements/1.1/"
   xmlns:cc="http://creativecommons.org/ns#"
   xmlns:rdf="http://www.w3.org/1999/02/22-rdf-syntax-ns#"
   xmlns:svg="http://www.w3.org/2000/svg"
   xmlns="http://www.w3.org/2000/svg"
   version="1.1"
   id="svg4511"
   viewBox="0 0 256 256"
   height="256"
   width="256">
  <defs
     id="defs4513" />
  <metadata
     id="metadata4516">
    <rdf:RDF>
      <cc:Work
         rdf:about="">
        <dc:format>image/svg+xml</dc:format>
        <dc:type
           rdf:resource="http://purl.org/dc/dcmitype/StillImage" />
        <dc:title></dc:title>
      </cc:Work>
    </rdf:RDF>
  </metadata>
  <g
     transform="translate(0,-796.36216)"
     id="layer1">
    <g
       transform="translate(-1644.3202,2136.358)"
       id="g5829">
      <rect
         transform="scale(1,-1)"
         style="color:#000000;clip-rule:nonzero;display:inline;overflow:visible;visibility:visible;opacity:1;isolation:auto;mix-blend-mode:normal;color-interpolation:sRGB;color-interpolation-filters:linearRGB;solid-color:#000000;solid-opacity:1;fill:#420296;fill-opacity:1;fill-rule:nonzero;stroke:none;stroke-width:2;stroke-linecap:round;stroke-linejoin:round;stroke-miterlimit:4;stroke-dasharray:none;stroke-dashoffset:0;stroke-opacity:1;color-rendering:auto;image-rendering:auto;shape-rendering:auto;text-rendering:auto;enable-background:accumulate"
         id="rect5501"
         width="256"
         height="256"
         x="1644.3202"
         y="1083.9958" />
      <g
         id="g5792"
         transform="matrix(1.2849058,0,0,1.2849058,-455.70647,288.30873)"
         style="fill:#ffffff;fill-opacity:1">
        <path
           id="path5523-6"
           d="m 1763.029,-1225.5997 c 0,0 -0.01,0 -0.014,0.01 -5.4722,1.2389 -10.4113,1.2809 -15.3125,0 l -0.016,-0.01 c -9e-4,0 0,0 0,0.01 0,0 -0.01,0 -0.014,0 l 0.01,0.016 c -4.3439,8.0871 -20.3061,34.1727 -30.4746,50.8925 -10.3166,-17.088 -22.5268,-36.8088 -30.4824,-50.9082 l -0.059,0.024 0.039,-0.025 c -6.31,1.3457 -8.9511,1.4314 -15.2481,0 l 0.033,0.037 c -0.018,-0.013 -0.039,-0.024 -0.057,-0.037 12.497,18.8314 32.5234,54.7014 39.3359,66.4765 l -0.9141,49.0899 0.047,-0.021 -0.029,0.021 c 0,0 4.3947,-0.7363 7.3321,-0.7363 3.2556,0 7.3046,0.7363 7.3046,0.7363 l -0.023,-0.018 0.037,0.018 -0.914,-49.0938 -0.029,-0.012 c 12.6952,-22.2734 33.6306,-58.5732 39.4257,-66.4238 l 0.033,-0.035 c 0,8e-4 -0.01,0 -0.01,0 0,0 0,0 0,-0.01 z"
           style="fill:#ffffff;fill-opacity:1" />
        <path
           id="path5509-5"
           d="m 1788.5856,-1224.3965 c -3.6603,0 -7.2871,2.1462 -7.2871,7.6347 -2.1708,27.5318 -4.4306,55.1406 -8.1465,81.4121 l -0.023,0.022 c 0.01,0 0.013,-8e-4 0.02,0 -2e-4,0 2e-4,0 0,0 l 0.039,-0.01 c 2.2347,-0.3778 3.9718,0.2051 5.6582,0.8848 l -0.01,-0.012 c 4.2209,-26.6849 14.2458,-66.6584 16.8125,-77.9726 0.3682,-1.5902 0.9179,-3.4725 0.9179,-4.8086 0,-4.0371 -2.5598,-6.381 -6.3906,-7.0215 l 0,0.01 0,0 c 0,0 -0.9464,-0.1328 -1.5879,-0.1328 z"
           style="fill:#ffffff;fill-opacity:1" />
        <path
           id="path5563-5"
           d="m 1765.4879,-1116.6914 c 0,-3.9343 2.3926,-7.593 7.189,-7.593 4.5908,0 8.026,2.7456 8.026,7.131 0,5.464 -3.6159,7.4775 -6.929,7.4775 -4.5809,0 -8.286,-2.377 -8.286,-7.0155 z"
           style="fill:#ffffff;fill-opacity:1" />
      </g>
    </g>
  </g>
</svg>
