<?xml version="1.0" encoding="UTF-8" standalone="no"?>
<svg
   xmlns:dc="http://purl.org/dc/elements/1.1/"
   xmlns:cc="http://creativecommons.org/ns#"
   xmlns:rdf="http://www.w3.org/1999/02/22-rdf-syntax-ns#"
   xmlns:svg="http://www.w3.org/2000/svg"
   xmlns="http://www.w3.org/2000/svg"
   version="1.1"
   id="svg2"
   viewBox="0 0 256 256"
   height="256"
   width="256">
  <defs
     id="defs4" />
  <metadata
     id="metadata7">
    <rdf:RDF>
      <cc:Work
         rdf:about="">
        <dc:format>image/svg+xml</dc:format>
        <dc:type
           rdf:resource="http://purl.org/dc/dcmitype/StillImage" />
        <dc:title></dc:title>
      </cc:Work>
    </rdf:RDF>
  </metadata>
  <g
     transform="translate(0,-796.36216)"
     id="layer1">
    <rect
       y="796.36218"
       x="0"
       height="256"
       width="256"
       id="rect4249"
       style="color:#000000;clip-rule:nonzero;display:inline;overflow:visible;visibility:visible;opacity:1;isolation:auto;mix-blend-mode:normal;color-interpolation:sRGB;color-interpolation-filters:linearRGB;solid-color:#000000;solid-opacity:1;fill:#ff0000;fill-opacity:1;fill-rule:nonzero;stroke:none;stroke-width:3.38000011;stroke-linecap:butt;stroke-linejoin:miter;stroke-miterlimit:4;stroke-dasharray:none;stroke-dashoffset:0;stroke-opacity:0.52682926;color-rendering:auto;image-rendering:auto;shape-rendering:auto;text-rendering:auto;enable-background:accumulate" />
    <path
       d="m 218.55033,878.57584 c -2.1735,-8.18498 -8.57695,-14.63031 -16.70932,-16.81777 C 187.10223,857.78262 128,857.78262 128,857.78262 c 0,0 -59.101909,0 -73.841116,3.97545 -8.131618,2.18746 -14.536183,8.63279 -16.709501,16.81777 -3.94938,14.83468 -3.94938,45.78633 -3.94938,45.78633 0,0 0,30.95122 3.94938,45.78729 2.173318,8.18402 8.577883,14.62928 16.709501,16.8177 C 68.898091,990.94171 128,990.94171 128,990.94171 c 0,0 59.10223,0 73.84101,-3.97455 8.13237,-2.18842 14.53582,-8.63368 16.70932,-16.8177 C 222.5,955.31339 222.5,924.36217 222.5,924.36217 c 0,0 0,-30.95165 -3.94967,-45.78633"
       style="fill:#ffffff;fill-opacity:1;fill-rule:nonzero;stroke:none"
       id="path4188" />
    <path
       d="m 108.67046,952.46378 49.39772,-28.10032 -49.39772,-28.10301 0,56.20333 z"
       style="fill:#ff0000;fill-opacity:1;fill-rule:nonzero;stroke:none"
       id="path4190" />
  </g>
</svg>
